<svg width="1600" height="900" viewBox="0 0 1600 900" fill="none" xmlns="http://www.w3.org/2000/svg">
  <rect width="1600" height="900" fill="#0F172A"/>
  <path d="M110 620C280 490 560 610 690 520C830 420 930 260 1220 300C1360 320 1460 400 1520 460" stroke="#22C55E" stroke-width="26" stroke-linecap="round"/>
  <path d="M120 650C290 520 570 640 700 550C840 450 940 290 1230 330C1370 350 1470 430 1530 490" stroke="#38BDF8" stroke-width="10" stroke-linecap="round" stroke-dasharray="16 18"/>
  <rect x="1250" y="110" width="220" height="170" rx="12" fill="#111827"/>
  <text x="1290" y="170" fill="#93C5FD" font-size="42" font-family="Arial">LAP</text>
  <text x="1290" y="230" fill="#F8FAFC" font-size="62" font-family="Arial" font-weight="700">12</text>
  <circle cx="230" cy="190" r="120" fill="#1E293B"/>
  <path d="M165 190H295" stroke="#F8FAFC" stroke-width="10"/>
  <path d="M230 125V255" stroke="#F8FAFC" stroke-width="10"/>
</svg>
